<?xml version="1.0" encoding="UTF-8" standalone="no"?>
<svg
   xmlns:dc="http://purl.org/dc/elements/1.1/"
   xmlns:cc="http://creativecommons.org/ns#"
   xmlns:rdf="http://www.w3.org/1999/02/22-rdf-syntax-ns#"
   xmlns:svg="http://www.w3.org/2000/svg"
   xmlns="http://www.w3.org/2000/svg"
   xmlns:sodipodi="http://sodipodi.sourceforge.net/DTD/sodipodi-0.dtd"
   xmlns:inkscape="http://www.inkscape.org/namespaces/inkscape"
   inkscape:export-ydpi="187.31564"
   inkscape:export-xdpi="187.31564"
   inkscape:export-filename="C:\Users\aweso\OneDrive\Pictures\damp\highres_dampboi.png"
   sodipodi:docname="vector_dampboi.svg"
   inkscape:version="1.0 (4035a4fb49, 2020-05-01)"
   id="svg8"
   version="1.1"
   viewBox="0 0 210 297"
   height="297mm"
   width="210mm">
  <defs
     id="defs2" />
  <sodipodi:namedview
     inkscape:window-maximized="1"
     inkscape:window-y="1791"
     inkscape:window-x="3269"
     inkscape:window-height="2131"
     inkscape:window-width="3762"
     showgrid="false"
     inkscape:document-rotation="0"
     inkscape:current-layer="layer1"
     inkscape:document-units="mm"
     inkscape:cy="474.1216"
     inkscape:cx="303.64272"
     inkscape:zoom="1.979899"
     inkscape:pageshadow="2"
     inkscape:pageopacity="0.0"
     borderopacity="1.0"
     bordercolor="#666666"
     pagecolor="#ffffff"
     id="base" />
  <metadata
     id="metadata5">
    <rdf:RDF>
      <cc:Work
         rdf:about="">
        <dc:format>image/svg+xml</dc:format>
        <dc:type
           rdf:resource="http://purl.org/dc/dcmitype/StillImage" />
        <dc:title></dc:title>
      </cc:Work>
    </rdf:RDF>
  </metadata>
  <g
     inkscape:label="Layer 3"
     id="layer3"
     inkscape:groupmode="layer">
    <path
       sodipodi:nodetypes="cccc"
       id="path24"
       d="m 91.889157,63.165913 c 22.962213,18.242432 61.000983,53.981787 61.421133,84.666667 -0.0586,62.26868 -95.050783,66.37225 -95.061013,-0.18898 1.10659,-30.76299 15.61893,-58.218887 33.63988,-84.477687 z"
       style="fill:#00ddfc;fill-opacity:1;stroke:none;stroke-width:4.865;stroke-linecap:butt;stroke-linejoin:miter;stroke-miterlimit:4;stroke-dasharray:none;stroke-opacity:1" />
  </g>
  <g
     id="layer1"
     inkscape:groupmode="layer"
     inkscape:label="Layer 1">
    <ellipse
       cx="80.886909"
       cy="138.38654"
       rx="1.7953868"
       ry="1.9371279"
       id="path849"
       style="fill:none;fill-opacity:1;stroke:#ff0000;stroke-width:0;stroke-miterlimit:4;stroke-dasharray:none;stroke-opacity:1" />
    <path
       sodipodi:nodetypes="cccccc"
       id="path870"
       d="m 61.939712,164.43757 c 23.56067,29.53775 105.838518,31.15471 74.033658,-55.19115 l 10.08943,12.62848 c 21.14063,36.03683 0.33373,54.55535 -24.25471,71.4946 -15.34573,5.57308 -30.691453,4.78695 -46.037179,-6.01356 z"
       style="fill:#00b1ca;stroke:#00b1ca;stroke-width:0.264583px;stroke-linecap:butt;stroke-linejoin:miter;stroke-opacity:1;fill-opacity:0.9716599" />
    <path
       d="m 108.04364,157.91124 a 6.3142428,4.9444861 0 0 1 -6.30293,4.9227 6.3142428,4.9444861 0 0 1 -6.325291,-4.90508 6.3142428,4.9444861 0 0 1 6.224691,-4.98339 6.3142428,4.9444861 0 0 1 6.40229,4.84345 l -6.31294,0.10055 z"
       sodipodi:arc-type="slice"
       sodipodi:end="6.2628486"
       sodipodi:start="0.0044036926"
       sodipodi:ry="4.9444861"
       sodipodi:rx="6.3142428"
       sodipodi:cy="157.88947"
       sodipodi:cx="101.72946"
       sodipodi:type="arc"
       id="path897"
       style="fill:#fd0100;fill-opacity:1;stroke:none;stroke-width:4.865;stroke-linejoin:round;stroke-miterlimit:4;stroke-dasharray:none;stroke-opacity:1" />
  </g>
  <g
     inkscape:label="Layer 2"
     id="layer2"
     inkscape:groupmode="layer">
    <path
       d="m 86.160978,139.878 a 3.6248426,3.7093675 0 0 1 -3.638363,3.69301 3.6248426,3.7093675 0 0 1 -3.61127,-3.72076 3.6248426,3.7093675 0 0 1 3.63357,-3.69794 3.6248426,3.7093675 0 0 1 3.616093,3.71584 l -3.624837,-0.006 z"
       sodipodi:arc-type="slice"
       sodipodi:end="0.0017484016"
       sodipodi:start="0.0044036966"
       sodipodi:ry="3.7093675"
       sodipodi:rx="3.6248426"
       sodipodi:cy="139.86166"
       sodipodi:cx="82.536171"
       sodipodi:type="arc"
       id="path851"
       style="fill:#000009;fill-opacity:1;stroke:none;stroke-width:1.15332;stroke-miterlimit:4;stroke-dasharray:none;stroke-opacity:1" />
    <path
       inkscape:transform-center-y="0.10022607"
       inkscape:transform-center-x="-0.16704346"
       style="fill:#000009;fill-opacity:1;stroke:none;stroke-width:1.153;stroke-miterlimit:4;stroke-dasharray:none;stroke-opacity:1"
       id="path851-2"
       sodipodi:type="arc"
       sodipodi:cx="118.96712"
       sodipodi:cy="139.98241"
       sodipodi:rx="3.6248426"
       sodipodi:ry="3.7093675"
       sodipodi:start="0.0044036966"
       sodipodi:end="0.0017484016"
       sodipodi:arc-type="slice"
       d="m 122.59192,139.99874 a 3.6248426,3.7093675 0 0 1 -3.63836,3.69301 3.6248426,3.7093675 0 0 1 -3.61127,-3.72075 3.6248426,3.7093675 0 0 1 3.63357,-3.69795 3.6248426,3.7093675 0 0 1 3.61609,3.71584 l -3.62483,-0.006 z" />
    <path
       style="fill:none;fill-opacity:1;stroke:#120000;stroke-width:4.865;stroke-linecap:butt;stroke-linejoin:miter;stroke-miterlimit:4;stroke-dasharray:none;stroke-opacity:1"
       d="m 91.186749,61.761612 c 22.962221,18.242432 61.000991,53.981778 61.421141,84.666658 -0.0586,62.26868 -95.050792,66.37225 -95.061022,-0.18898 1.10659,-30.76299 15.618931,-58.218878 33.639881,-84.477678 z"
       id="path24-4"
       sodipodi:nodetypes="cccc" />
    <path
       sodipodi:nodetypes="cccc"
       id="path877"
       d="m 93.477515,152.91158 h 14.967095 c 0.18343,4.17477 -2.19077,7.96113 -7.21628,8.01808 -5.118249,-0.0866 -7.504667,-3.9371 -7.750815,-8.01808 z"
       style="fill:none;stroke:#000000;stroke-width:4.865;stroke-linecap:butt;stroke-linejoin:round;stroke-opacity:1;stroke-miterlimit:4;stroke-dasharray:none" />
  </g>
</svg>
